<mxfile host="app.diagrams.net" agent="Mozilla/5.0 (Windows NT 10.0; Win64; x64) AppleWebKit/537.36 (KHTML, like Gecko) Chrome/138.0.0.0 Safari/537.36" version="24.8.0">
  <diagram name="Страница 1" id="xFxOA301gsr8KIwCS7wJ">
    <mxGraphModel dx="2261" dy="746" grid="1" gridSize="10" guides="1" tooltips="1" connect="1" arrows="1" fold="1" page="1" pageScale="1" pageWidth="827" pageHeight="1169" math="0" shadow="0">
      <root>
        <mxCell id="0" />
        <mxCell id="1" parent="0" />
        <mxCell id="NGGrgc-CBntSDlkURmZ5-9" style="edgeStyle=orthogonalEdgeStyle;rounded=0;orthogonalLoop=1;jettySize=auto;html=1;exitX=1;exitY=0.5;exitDx=0;exitDy=0;entryX=0;entryY=0.5;entryDx=0;entryDy=0;" parent="1" source="NGGrgc-CBntSDlkURmZ5-2" target="NGGrgc-CBntSDlkURmZ5-5" edge="1">
          <mxGeometry relative="1" as="geometry" />
        </mxCell>
        <mxCell id="NGGrgc-CBntSDlkURmZ5-2" value="VK_Parser&lt;div&gt;&lt;br&gt;&lt;/div&gt;" style="shape=module;align=left;spacingLeft=20;align=center;verticalAlign=top;whiteSpace=wrap;html=1;" parent="1" vertex="1">
          <mxGeometry x="50" y="400" width="100" height="50" as="geometry" />
        </mxCell>
        <mxCell id="NGGrgc-CBntSDlkURmZ5-17" value="" style="edgeStyle=orthogonalEdgeStyle;rounded=0;orthogonalLoop=1;jettySize=auto;html=1;" parent="1" source="NGGrgc-CBntSDlkURmZ5-5" target="NGGrgc-CBntSDlkURmZ5-16" edge="1">
          <mxGeometry relative="1" as="geometry" />
        </mxCell>
        <mxCell id="NGGrgc-CBntSDlkURmZ5-5" value="Post text" style="rounded=0;whiteSpace=wrap;html=1;" parent="1" vertex="1">
          <mxGeometry x="293" y="320" width="90" height="35" as="geometry" />
        </mxCell>
        <mxCell id="NGGrgc-CBntSDlkURmZ5-8" value="" style="group" parent="1" vertex="1" connectable="0">
          <mxGeometry x="299.5" y="540" width="77" height="54" as="geometry" />
        </mxCell>
        <mxCell id="NGGrgc-CBntSDlkURmZ5-7" value="" style="image;aspect=fixed;html=1;points=[];align=center;fontSize=12;image=img/lib/azure2/general/Image.svg;" parent="NGGrgc-CBntSDlkURmZ5-8" vertex="1">
          <mxGeometry width="64" height="44" as="geometry" />
        </mxCell>
        <mxCell id="NGGrgc-CBntSDlkURmZ5-6" value="Post images" style="image;aspect=fixed;html=1;points=[];align=center;fontSize=12;image=img/lib/azure2/general/Image.svg;" parent="NGGrgc-CBntSDlkURmZ5-8" vertex="1">
          <mxGeometry x="13" y="10" width="64" height="44" as="geometry" />
        </mxCell>
        <mxCell id="NGGrgc-CBntSDlkURmZ5-10" style="edgeStyle=orthogonalEdgeStyle;rounded=0;orthogonalLoop=1;jettySize=auto;html=1;exitX=1;exitY=0.5;exitDx=0;exitDy=0;entryX=-0.031;entryY=0.455;entryDx=0;entryDy=0;entryPerimeter=0;" parent="1" source="NGGrgc-CBntSDlkURmZ5-2" target="NGGrgc-CBntSDlkURmZ5-7" edge="1">
          <mxGeometry relative="1" as="geometry">
            <Array as="points">
              <mxPoint x="220" y="425" />
              <mxPoint x="220" y="560" />
            </Array>
          </mxGeometry>
        </mxCell>
        <mxCell id="NGGrgc-CBntSDlkURmZ5-11" value="Downloads" style="edgeLabel;html=1;align=center;verticalAlign=middle;resizable=0;points=[];" parent="NGGrgc-CBntSDlkURmZ5-10" vertex="1" connectable="0">
          <mxGeometry x="-0.561" y="3" relative="1" as="geometry">
            <mxPoint x="-22" y="2" as="offset" />
          </mxGeometry>
        </mxCell>
        <mxCell id="NGGrgc-CBntSDlkURmZ5-14" value="" style="edgeStyle=orthogonalEdgeStyle;rounded=0;orthogonalLoop=1;jettySize=auto;html=1;" parent="1" source="NGGrgc-CBntSDlkURmZ5-13" edge="1">
          <mxGeometry relative="1" as="geometry">
            <mxPoint x="240" y="560" as="targetPoint" />
          </mxGeometry>
        </mxCell>
        <mxCell id="NGGrgc-CBntSDlkURmZ5-15" value="Labels cat gender" style="edgeLabel;html=1;align=center;verticalAlign=middle;resizable=0;points=[];" parent="NGGrgc-CBntSDlkURmZ5-14" vertex="1" connectable="0">
          <mxGeometry x="-0.1111" y="4" relative="1" as="geometry">
            <mxPoint as="offset" />
          </mxGeometry>
        </mxCell>
        <mxCell id="NGGrgc-CBntSDlkURmZ5-23" style="edgeStyle=orthogonalEdgeStyle;rounded=0;orthogonalLoop=1;jettySize=auto;html=1;exitX=1;exitY=0.5;exitDx=0;exitDy=0;exitPerimeter=0;entryX=0;entryY=0;entryDx=0;entryDy=15;entryPerimeter=0;" parent="1" source="NGGrgc-CBntSDlkURmZ5-13" target="NGGrgc-CBntSDlkURmZ5-22" edge="1">
          <mxGeometry relative="1" as="geometry">
            <Array as="points">
              <mxPoint x="640" y="169" />
              <mxPoint x="640" y="415" />
            </Array>
          </mxGeometry>
        </mxCell>
        <mxCell id="NGGrgc-CBntSDlkURmZ5-13" value="Pre-trained model (Yolo)" style="sketch=0;points=[[0,0,0],[0.25,0,0],[0.5,0,0],[0.75,0,0],[1,0,0],[0,1,0],[0.25,1,0],[0.5,1,0],[0.75,1,0],[1,1,0],[0,0.25,0],[0,0.5,0],[0,0.75,0],[1,0.25,0],[1,0.5,0],[1,0.75,0]];outlineConnect=0;fontColor=#232F3E;fillColor=#01A88D;strokeColor=#ffffff;dashed=0;verticalLabelPosition=bottom;verticalAlign=top;align=center;html=1;fontSize=12;fontStyle=0;aspect=fixed;shape=mxgraph.aws4.resourceIcon;resIcon=mxgraph.aws4.machine_learning;" parent="1" vertex="1">
          <mxGeometry x="298.5" y="130" width="78" height="78" as="geometry" />
        </mxCell>
        <mxCell id="BWA19FkMfY4WhL8wJEGs-15" value="" style="edgeStyle=orthogonalEdgeStyle;rounded=0;orthogonalLoop=1;jettySize=auto;html=1;" edge="1" parent="1" source="NGGrgc-CBntSDlkURmZ5-16" target="BWA19FkMfY4WhL8wJEGs-14">
          <mxGeometry relative="1" as="geometry" />
        </mxCell>
        <mxCell id="NGGrgc-CBntSDlkURmZ5-16" value="Cat gender label" style="label;whiteSpace=wrap;html=1;image=img/clipart/Gear_128x128.png" parent="1" vertex="1">
          <mxGeometry x="450" y="307.5" width="140" height="60" as="geometry" />
        </mxCell>
        <mxCell id="NGGrgc-CBntSDlkURmZ5-18" value="Training data" style="html=1;verticalLabelPosition=bottom;align=center;labelBackgroundColor=#ffffff;verticalAlign=top;strokeWidth=2;strokeColor=#0080F0;shadow=0;dashed=0;shape=mxgraph.ios7.icons.folder;" parent="1" vertex="1">
          <mxGeometry x="450" y="522" width="140" height="100" as="geometry" />
        </mxCell>
        <mxCell id="NGGrgc-CBntSDlkURmZ5-19" value="" style="edgeStyle=orthogonalEdgeStyle;rounded=0;orthogonalLoop=1;jettySize=auto;html=1;" parent="1" source="NGGrgc-CBntSDlkURmZ5-6" target="NGGrgc-CBntSDlkURmZ5-18" edge="1">
          <mxGeometry relative="1" as="geometry" />
        </mxCell>
        <mxCell id="NGGrgc-CBntSDlkURmZ5-27" value="" style="edgeStyle=orthogonalEdgeStyle;rounded=0;orthogonalLoop=1;jettySize=auto;html=1;" parent="1" source="NGGrgc-CBntSDlkURmZ5-22" target="NGGrgc-CBntSDlkURmZ5-26" edge="1">
          <mxGeometry relative="1" as="geometry" />
        </mxCell>
        <mxCell id="NGGrgc-CBntSDlkURmZ5-28" value="Creates" style="edgeLabel;html=1;align=center;verticalAlign=middle;resizable=0;points=[];" parent="NGGrgc-CBntSDlkURmZ5-27" vertex="1" connectable="0">
          <mxGeometry x="-0.2" y="-3" relative="1" as="geometry">
            <mxPoint as="offset" />
          </mxGeometry>
        </mxCell>
        <mxCell id="NGGrgc-CBntSDlkURmZ5-22" value="&lt;div&gt;CatGender&lt;/div&gt;&lt;div&gt;&lt;br&gt;&lt;/div&gt;&lt;div&gt;trainer&lt;/div&gt;" style="shape=module;align=left;spacingLeft=20;align=center;verticalAlign=top;whiteSpace=wrap;html=1;" parent="1" vertex="1">
          <mxGeometry x="710" y="400" width="100" height="50" as="geometry" />
        </mxCell>
        <mxCell id="NGGrgc-CBntSDlkURmZ5-25" style="edgeStyle=orthogonalEdgeStyle;rounded=0;orthogonalLoop=1;jettySize=auto;html=1;entryX=0;entryY=0;entryDx=0;entryDy=35;entryPerimeter=0;" parent="1" source="NGGrgc-CBntSDlkURmZ5-18" target="NGGrgc-CBntSDlkURmZ5-22" edge="1">
          <mxGeometry relative="1" as="geometry">
            <mxPoint x="590" y="572" as="sourcePoint" />
            <mxPoint x="910" y="445" as="targetPoint" />
            <Array as="points">
              <mxPoint x="640" y="572" />
              <mxPoint x="640" y="435" />
            </Array>
          </mxGeometry>
        </mxCell>
        <mxCell id="NGGrgc-CBntSDlkURmZ5-26" value="Trained&lt;div&gt;CatGenderModel&lt;/div&gt;" style="sketch=0;points=[[0,0,0],[0.25,0,0],[0.5,0,0],[0.75,0,0],[1,0,0],[0,1,0],[0.25,1,0],[0.5,1,0],[0.75,1,0],[1,1,0],[0,0.25,0],[0,0.5,0],[0,0.75,0],[1,0.25,0],[1,0.5,0],[1,0.75,0]];outlineConnect=0;fillColor=#d5e8d4;strokeColor=#82b366;dashed=0;verticalLabelPosition=bottom;verticalAlign=top;align=center;html=1;fontSize=12;fontStyle=0;aspect=fixed;shape=mxgraph.aws4.resourceIcon;resIcon=mxgraph.aws4.machine_learning;" parent="1" vertex="1">
          <mxGeometry x="890" y="386" width="78" height="78" as="geometry" />
        </mxCell>
        <mxCell id="BWA19FkMfY4WhL8wJEGs-9" value="List of objects:&lt;div&gt;&lt;span style=&quot;background-color: initial;&quot;&gt;{&lt;/span&gt;&lt;div&gt;&lt;blockquote style=&quot;margin: 0 0 0 40px; border: none; padding: 0px;&quot;&gt;&lt;div style=&quot;text-align: right;&quot;&gt;&lt;div style=&quot;text-align: justify;&quot;&gt;&lt;span style=&quot;background-color: initial;&quot;&gt;id: uint&lt;/span&gt;&lt;/div&gt;&lt;span style=&quot;background-color: initial;&quot;&gt;&lt;div style=&quot;text-align: justify;&quot;&gt;&lt;span style=&quot;background-color: initial;&quot;&gt;label: enum[CatGender]&lt;/span&gt;&lt;/div&gt;&lt;/span&gt;&lt;span style=&quot;background-color: initial;&quot;&gt;&lt;div style=&quot;text-align: justify;&quot;&gt;&lt;span style=&quot;background-color: initial;&quot;&gt;image: np.ndarray&lt;/span&gt;&lt;/div&gt;&lt;div style=&quot;text-align: justify;&quot;&gt;&lt;span style=&quot;background-color: initial; text-align: center;&quot;&gt;}&lt;/span&gt;&lt;/div&gt;&lt;/span&gt;&lt;/div&gt;&lt;/blockquote&gt;&lt;/div&gt;&lt;/div&gt;" style="shape=note2;boundedLbl=1;whiteSpace=wrap;html=1;size=25;verticalAlign=top;align=center;" vertex="1" parent="1">
          <mxGeometry x="620" y="594" width="260" height="146" as="geometry" />
        </mxCell>
        <mxCell id="BWA19FkMfY4WhL8wJEGs-10" style="edgeStyle=orthogonalEdgeStyle;rounded=0;orthogonalLoop=1;jettySize=auto;html=1;entryX=0.929;entryY=0.97;entryDx=0;entryDy=0;entryPerimeter=0;" edge="1" parent="1" source="BWA19FkMfY4WhL8wJEGs-9" target="NGGrgc-CBntSDlkURmZ5-18">
          <mxGeometry relative="1" as="geometry" />
        </mxCell>
        <mxCell id="BWA19FkMfY4WhL8wJEGs-13" value="" style="edgeStyle=orthogonalEdgeStyle;rounded=0;orthogonalLoop=1;jettySize=auto;html=1;" edge="1" parent="1" source="BWA19FkMfY4WhL8wJEGs-11" target="NGGrgc-CBntSDlkURmZ5-2">
          <mxGeometry relative="1" as="geometry" />
        </mxCell>
        <mxCell id="BWA19FkMfY4WhL8wJEGs-11" value="Cat post in VK" style="whiteSpace=wrap;html=1;shape=mxgraph.basic.document" vertex="1" parent="1">
          <mxGeometry x="-90" y="375" width="100" height="100" as="geometry" />
        </mxCell>
        <mxCell id="BWA19FkMfY4WhL8wJEGs-16" value="" style="edgeStyle=orthogonalEdgeStyle;rounded=0;orthogonalLoop=1;jettySize=auto;html=1;" edge="1" parent="1" source="BWA19FkMfY4WhL8wJEGs-14" target="NGGrgc-CBntSDlkURmZ5-18">
          <mxGeometry relative="1" as="geometry" />
        </mxCell>
        <mxCell id="BWA19FkMfY4WhL8wJEGs-17" value="Yes" style="edgeLabel;html=1;align=center;verticalAlign=middle;resizable=0;points=[];" vertex="1" connectable="0" parent="BWA19FkMfY4WhL8wJEGs-16">
          <mxGeometry x="-0.1034" y="3" relative="1" as="geometry">
            <mxPoint x="-3" as="offset" />
          </mxGeometry>
        </mxCell>
        <mxCell id="BWA19FkMfY4WhL8wJEGs-19" value="" style="edgeStyle=orthogonalEdgeStyle;rounded=0;orthogonalLoop=1;jettySize=auto;html=1;" edge="1" parent="1" source="BWA19FkMfY4WhL8wJEGs-14" target="BWA19FkMfY4WhL8wJEGs-18">
          <mxGeometry relative="1" as="geometry" />
        </mxCell>
        <mxCell id="BWA19FkMfY4WhL8wJEGs-20" value="No" style="edgeLabel;html=1;align=center;verticalAlign=middle;resizable=0;points=[];" vertex="1" connectable="0" parent="BWA19FkMfY4WhL8wJEGs-19">
          <mxGeometry x="0.0333" y="3" relative="1" as="geometry">
            <mxPoint x="1" y="-3" as="offset" />
          </mxGeometry>
        </mxCell>
        <mxCell id="BWA19FkMfY4WhL8wJEGs-14" value="Has only&lt;div&gt;1&lt;/div&gt;&lt;div&gt;cat?&lt;/div&gt;" style="rhombus;whiteSpace=wrap;html=1;" vertex="1" parent="1">
          <mxGeometry x="480" y="384" width="80" height="80" as="geometry" />
        </mxCell>
        <mxCell id="BWA19FkMfY4WhL8wJEGs-18" value="Drop post" style="html=1;dashed=0;whiteSpace=wrap;shape=mxgraph.dfd.start" vertex="1" parent="1">
          <mxGeometry x="340" y="409" width="80" height="30" as="geometry" />
        </mxCell>
      </root>
    </mxGraphModel>
  </diagram>
</mxfile>
